<svg id="visual" viewBox="0 0 1080 720" width="1080" height="720" xmlns="http://www.w3.org/2000/svg" xmlns:xlink="http://www.w3.org/1999/xlink" version="1.1"><rect x="0" y="0" width="1080" height="720" fill="#002233"></rect><path d="M0 171L25.7 184C51.3 197 102.7 223 154.2 211C205.7 199 257.3 149 308.8 139.3C360.3 129.7 411.7 160.3 463 188.2C514.3 216 565.7 241 617 247.7C668.3 254.3 719.7 242.7 771.2 218C822.7 193.3 874.3 155.7 925.8 156C977.3 156.3 1028.7 194.7 1054.3 213.8L1080 233L1080 0L1054.3 0C1028.7 0 977.3 0 925.8 0C874.3 0 822.7 0 771.2 0C719.7 0 668.3 0 617 0C565.7 0 514.3 0 463 0C411.7 0 360.3 0 308.8 0C257.3 0 205.7 0 154.2 0C102.7 0 51.3 0 25.7 0L0 0Z" fill="#0066FF" stroke-linecap="round" stroke-linejoin="miter"></path></svg>